<svg version="1.1" id="Layer_1" xmlns="http://www.w3.org/2000/svg" x="0" y="0" width="51" height="51" style="enable-background:new 0 0 51 51" xml:space="preserve"><style>.st0{fill:#fff}</style><path class="st0" d="M30 20.9h-3.3c.6.5 1 1.2 1.1 2H30v1h-2.2c-.2 2-1.8 3.3-4.4 3.4 1.5 1.6 3.2 3.6 4.9 5.6h-1.9c-1.5-1.9-3-3.6-4.8-5.6v-1.2h1c2.2 0 3.3-.9 3.5-2.3h-4.5v-1H26c-.3-1.1-1.3-1.7-3.1-1.7h-1.4v-1.3H30v1.1z"/><path class="st0" d="M9.8 27.1c.4-.1.7-.5.7-.9-.4-8.2 6-15.3 14.2-15.7 4.7-.2 9.3 1.8 12.3 5.5l-2.9-.5c-.5 0-.8.3-.9.8 0 .4.2.7.6.8l5.7.9.9-5.6c.1-.4-.2-.9-.6-1-.4-.1-.9.2-1 .6v.2l-.5 2.9C32.6 7.8 22.2 6.8 15 12.5c-4.1 3.3-6.4 8.4-6.1 13.7.1.6.4.9.9.9zm1.1 12.1c.5.1.9-.2 1-.6l.5-3c5.6 7.3 16.1 8.6 23.3 3 4.4-3.5 6.9-8.9 6.4-14.4-.1-.5-.6-.7-1-.6-.4.1-.6.4-.6.8.7 8.2-5.4 15.5-13.6 16.1-5.1.4-10-1.8-13.1-5.8l2.8.4c.4.1.9-.2 1-.6.1-.5-.2-.9-.6-1l-5.7-.9-.9 5.7c-.2.4.1.9.5.9 0 .1 0 .1 0 0z"/></svg>
