<?xml version="1.0" encoding="utf-8"?>
<!-- Generator: Adobe Illustrator 16.0.3, SVG Export Plug-In . SVG Version: 6.00 Build 0)  -->
<!DOCTYPE svg PUBLIC "-//W3C//DTD SVG 1.1 Tiny//EN" "http://www.w3.org/Graphics/SVG/1.1/DTD/svg11-tiny.dtd">
<svg version="1.1" baseProfile="tiny" id="Layer_1" xmlns="http://www.w3.org/2000/svg" xmlns:xlink="http://www.w3.org/1999/xlink"
	 x="0px" y="0px" width="26px" height="26px" viewBox="0 0 26 26" xml:space="preserve">
<g id="Layer_1_2_">
	<g id="Layer_1_1_">
	</g>
</g>
<g>
	<path fill="#FFFFFF" d="M6.677,10.307c0.047-1.035,0.477-1.875,1.248-2.539c0.16-0.138,0.4-0.222,0.613-0.249
		c0.283-0.035,0.583-0.021,0.863,0.031C9.534,7.57,9.7,7.688,9.763,7.811c0.203,0.394,0.371,0.809,0.547,1.219
		c0.182,0.416,0.334,0.843,0.529,1.253c0.157,0.324,0.082,0.606-0.105,0.868c-0.207,0.281-0.432,0.551-0.659,0.814
		c-0.187,0.221-0.229,0.391-0.078,0.632c0.538,0.871,1.167,1.663,1.962,2.316c0.671,0.554,1.421,0.961,2.211,1.303
		c0.389,0.168,0.531,0.142,0.805-0.188c0.293-0.348,0.571-0.7,0.854-1.06c0.212-0.27,0.388-0.336,0.699-0.194
		c0.843,0.389,1.677,0.795,2.517,1.187c0.21,0.101,0.308,0.263,0.272,0.479c-0.069,0.406-0.123,0.816-0.246,1.203
		c-0.141,0.432-0.518,0.682-0.871,0.933c-0.524,0.366-1.129,0.565-1.756,0.588c-0.437,0.017-0.895-0.086-1.313-0.214
		c-0.74-0.231-1.468-0.508-2.188-0.793c-0.756-0.303-1.43-0.76-2.063-1.268c-1.208-0.974-2.187-2.154-3.056-3.433
		c-0.483-0.702-0.874-1.444-1.045-2.288C6.717,10.886,6.707,10.593,6.677,10.307z"/>
	<g>
		<polyline fill="none" stroke="#FFFFFF" stroke-width="1.5" stroke-linecap="square" stroke-miterlimit="10" points="17.833,11.46 
			14.05,11.816 13.719,8.29 		"/>
		
			<line fill="none" stroke="#FFFFFF" stroke-width="1.5" stroke-linecap="square" stroke-miterlimit="10" x1="18.193" y1="6.835" x2="14.651" y2="11.091"/>
	</g>
</g>
</svg>
