<?xml version="1.0" encoding="utf-8"?>
<!-- Generator: Adobe Illustrator 16.0.3, SVG Export Plug-In . SVG Version: 6.00 Build 0)  -->
<!DOCTYPE svg PUBLIC "-//W3C//DTD SVG 1.1 Tiny//EN" "http://www.w3.org/Graphics/SVG/1.1/DTD/svg11-tiny.dtd">
<svg version="1.1" baseProfile="tiny" id="Layer_1" xmlns="http://www.w3.org/2000/svg" xmlns:xlink="http://www.w3.org/1999/xlink"
	 x="0px" y="0px" width="26px" height="26px" viewBox="0 0 26 26" xml:space="preserve">
<g id="Layer_1_2_">
	<g id="Layer_1_1_">
	</g>
</g>
<path fill="#FFFFFF" d="M6.678,9.974c0.046-1.035,0.477-1.875,1.248-2.539c0.16-0.138,0.4-0.222,0.613-0.249
	c0.284-0.035,0.583-0.021,0.864,0.031c0.132,0.021,0.298,0.139,0.361,0.261c0.203,0.394,0.371,0.809,0.547,1.219
	c0.181,0.416,0.333,0.843,0.529,1.253c0.157,0.324,0.082,0.606-0.105,0.868c-0.207,0.281-0.432,0.551-0.66,0.814
	c-0.187,0.221-0.229,0.391-0.078,0.632c0.538,0.871,1.167,1.664,1.962,2.317c0.671,0.554,1.421,0.961,2.211,1.303
	c0.388,0.168,0.531,0.142,0.804-0.188c0.293-0.349,0.572-0.701,0.854-1.06c0.212-0.27,0.388-0.336,0.7-0.194
	c0.842,0.388,1.676,0.794,2.516,1.186c0.21,0.101,0.307,0.263,0.272,0.479c-0.069,0.406-0.122,0.817-0.246,1.203
	c-0.141,0.432-0.517,0.682-0.871,0.933c-0.524,0.367-1.128,0.565-1.755,0.588c-0.437,0.017-0.895-0.086-1.313-0.214
	c-0.74-0.231-1.468-0.508-2.187-0.793c-0.757-0.303-1.431-0.759-2.064-1.268c-1.208-0.973-2.187-2.153-3.056-3.433
	c-0.483-0.702-0.874-1.444-1.045-2.288C6.718,10.553,6.708,10.261,6.678,9.974z"/>
</svg>
