<svg version="1.1" id="Layer_1" xmlns="http://www.w3.org/2000/svg" x="0" y="0" width="84" height="84" style="enable-background:new 0 0 84 84" xml:space="preserve"><style>.st0{fill:#1f1d18}.st1{fill:#fff}</style><g id="XMLID_1_"><path class="st0" d="M84 51.2v23.4h-.3c-.4.6-1 1.1-1.8 1.1H45c-1.1 0-2.1-.9-2.1-2.1v-2.9h2v2.9h37v-.9h.1V51.2h-5v-1.1h2v-1h2.9c1.2 0 2.1.9 2.1 2.1z"/><path class="st1" d="M82 51.2v21.6h-.1v.9h-18v-2c5.1 0 9.2-4.1 9.2-9.2s-4.1-9.2-9.2-9.2v-2H77l5-.1z"/><path class="st0" d="M77 49.1h2v1h-2zm2-2.9v2.9h-2v-2.9l-3.6-.1h1v-2H77c1.1 0 2 1 2 2.1zm-2 3.9v1.1H45l-.1 19.6h-1v-2h-1V51.2c0-1.1.9-2.1 2.1-2.1h32v1z"/><path class="st1" d="M77 46.2v2.9H45c-1.1 0-2.1.9-2.1 2.1v17.5l-3-.1V46.1h33.5l3.6.1z"/><path class="st0" d="M73.4 44.1h1v2h-1z"/><path class="st0" d="M74.4 40.9v3.3h-2v-3.3l-37-.1v.2h-.2c0-.3-.1-.6-.3-.8l-.9-.8c.4-.4.9-.6 1.5-.6h36.8c1.2 0 2.1.9 2.1 2.1z"/><path class="st0" d="M73.4 44.1v2H39.9v18.2h-2V46.2c0-.6.2-1.1.6-1.5.4-.4.9-.6 1.5-.6h33.4z"/><path class="st1" d="M72.4 40.9v3.3H40c-.6 0-1.1.2-1.5.6-.4.4-.6.9-.6 1.5v17.1h-2.6l.1-22.4v-.2l37 .1z"/><path class="st0" d="M63.9 53.2c5.1 0 9.2 4.1 9.2 9.2s-4.1 9.2-9.2 9.2-9.2-4.1-9.2-9.2 4.1-9.2 9.2-9.2zm3.5 5.3H62s-.2.3-.5.8h1.4c.2 0 .5 0 .8.1.4.2.7.4.9.7H62s-.2.3-.6.8h3.2c0 .1 0 .2-.1.4-.3.8-1 1.2-2.2 1.2h-.7v.8s1.1 1.2 3.2 3.7h1.4c-2.2-2.5-3.3-3.8-3.3-3.9.5 0 1-.1 1.5-.4.3-.1.6-.4.9-.7.2-.4.4-.7.4-1h1s.2-.3.5-.8h-1.6c-.1-.3-.2-.6-.4-.8h1.5c.2-.1.4-.4.7-.9z"/><path class="st1" d="M67.4 58.5c-.3.5-.5.8-.5.8h-1.5c.2.2.3.5.4.8h1.6c-.3.5-.5.8-.5.8h-1c0 .3-.2.6-.4 1-.3.4-.6.6-.9.7-.5.3-1 .4-1.5.4l3.3 3.9H65c-2.1-2.5-3.2-3.7-3.2-3.7v-.8h.7c1.2 0 1.9-.4 2.2-1.2.1-.1.1-.2.1-.4h-3.2c.4-.5.5-.8.6-.8h2.6c-.2-.3-.4-.5-.9-.7-.3-.1-.6-.1-.8-.1h-1.4c.3-.5.5-.8.5-.8h5.2z"/><path class="st1" d="M63.9 71.6v2h-19v-2.9l.1-19.6h18.9v2c-5.1 0-9.2 4.1-9.2 9.2s4.1 9.3 9.2 9.3z"/><path class="st0" d="M55 35.9c0 .5-.4 1-1 1-.5 0-1-.5-1-1C53 22 42 10.7 28.2 10.3h-.6C13.5 10.3 2 21.8 2 35.9 2 50 13.4 61.4 27.5 61.4c1.3 0 2.6-.1 3.9-.3.5-.1 1.1.3 1.1.8v.2c0 .5-.3.9-.8 1-1.4.2-2.8.3-4.2.3C12.4 63.4 0 51 0 35.9 0 20.7 12.4 8.3 27.5 8.3S55 20.7 55 35.9z"/><path class="st1" d="M54 36.9v1.9H35.4c-.6 0-1.1.2-1.5.6L30 36.2c.1-.2.2-.5.2-.8 0-.8-.4-1.5-1.1-1.8V20.2c0-.6-.4-1-1-1v-2.6c.6 0 1-.4 1-1v-2.2c0-.5-.4-1-1-1l.1-2C42 10.7 53 22 53 35.9c0 .5.5 1 1 1zm-2.3-1c0-.6-.4-1-1-1h-2.2c-.5 0-1 .4-1 1 0 .5.5 1 1 1h2.2c.5 0 1-.5 1-1z"/><path class="st0" d="M50.7 34.9c.6 0 1 .4 1 1 0 .5-.4 1-1 1h-2.2c-.5 0-1-.5-1-1 0-.6.5-1 1-1h2.2zm-6.8 33.8v2h-1v-2zm-1 0v2H40c-1.1 0-2.1-.9-2.1-2.1v-3.3h2v3.3l3 .1z"/><path class="st0" d="M37.9 64.4h2v1h-2zm0 0v1h-2.6c-1.1 0-2.1-.9-2.1-2.1V41.5l.2.2c.2.2.4.2.6.2.3 0 .6-.1.8-.3.2-.2.2-.4.2-.6h.2l-.1 22.3h2.6v1.1z"/><path class="st0" d="M35.2 41c0 .2-.1.4-.2.6-.2.2-.5.3-.8.3-.2 0-.5-.1-.6-.2l-.2-.2v-.7c0-.6.2-1.1.6-1.4l.9.8c.1.2.3.5.3.8z"/><path class="st0" d="m30 36.2 3.9 3.3c-.4.4-.6.9-.6 1.4v.7l-4.9-4.2c.7-.1 1.4-.6 1.6-1.2z"/><path class="st1" d="M33.3 41.5V62h-.7v-.2c-.1-.5-.6-.9-1.1-.8-1.3.2-2.6.3-3.9.3C13.5 61.4 2 49.9 2 35.9c0-14.1 11.4-25.5 25.5-25.5h.6l-.1 2c-.5 0-1 .5-1 1v2.2c0 .6.5 1 1 1v2.6c-.5 0-1 .4-1 1v13.3c-.6.3-1.1 1-1.1 1.8 0 1.1.9 2.1 2.1 2.1h.3l5 4.1zm-4.2 16.8v-2.2c0-.5-.4-1-1-1-.5 0-1 .5-1 1v2.2c0 .6.5 1 1 1 .6 0 1-.4 1-1zM8.9 35.9c0-.6-.4-1-1-1H5.7c-.6 0-1 .4-1 1 0 .5.4 1 1 1h2.2c.6 0 1-.5 1-1z"/><path class="st0" d="M30.2 35.3c0 .3-.1.6-.2.8l-.9-.8v-1.8c.7.4 1.1 1.1 1.1 1.8z"/><path class="st0" d="m29.1 35.4.9.8c-.3.7-.9 1.1-1.6 1.2l-.9-.8c-.2-.2-.4-.5-.4-.8v-2.3c.3-.2.6-.3 1-.3s.7.1 1 .3v1.9zm0 20.7v2.2c0 .6-.4 1-1 1-.5 0-1-.4-1-1v-2.2c0-.5.5-1 1-1 .6 0 1 .5 1 1z"/><path class="st0" d="M29.1 20.2v13.3c-.3-.2-.6-.3-1-.3s-.7.1-1 .3V20.2c0-.6.5-1 1-1 .6 0 1 .4 1 1zm0-6.8v2.2c0 .6-.4 1-1 1-.5 0-1-.4-1-1v-2.2c0-.5.5-1 1-1 .6 0 1 .4 1 1zm-1.6 23.2.9.8h-.3c-1.1 0-2.1-.9-2.1-2.1 0-.8.4-1.5 1.1-1.8v2.3c0 .4.2.6.4.8zM7.9 34.9c.6 0 1 .4 1 1 0 .5-.4 1-1 1H5.7c-.6 0-1-.5-1-1 0-.6.4-1 1-1h2.2z"/></g></svg>
