<svg version="1.1" id="Layer_1" xmlns="http://www.w3.org/2000/svg" x="0" y="0" width="26" height="26" style="enable-background:new 0 0 26 26" xml:space="preserve"><style>.st0{fill:#fff}</style><path class="st0" d="M15 12.5c0 .1-.1.2-.2.2h-1c-.2.6-.8 1.1-1.5 1.1H11l2.8 2.4c.1.1.1.3-.1.4h-.2c-.1 0-.2 0-.3-.1L10 13.8c-.1-.1-.1-.1-.1-.2v-.1c0-.1.1-.2.2-.2h2c.4 0 .8-.3 1-.6h-3c-.1 0-.2-.1-.2-.2s.1-.2.2-.2h3.1c0-.6-.5-1-1.1-1h-2c-.1 0-.2-.1-.2-.2s.1-.2.2-.2h4.6c.1 0 .2.1.2.2s-.1.2-.2.2h-1.4c.2.3.4.6.4 1h1c.2-.1.3 0 .3.2z"/><path class="st0" d="M13.7 16.7h-.2c-.1 0-.3 0-.4-.1l-3.2-2.7c-.1-.1-.1-.2-.1-.3v-.1c0-.2.2-.3.3-.3h2c.3 0 .5-.2.7-.3h-2.7c-.2 0-.3-.2-.3-.3s.2-.3.3-.3h3c-.1-.4-.4-.8-1-.8h-2c-.2 0-.3-.2-.3-.3 0-.2.2-.3.3-.3h4.6c.2 0 .3.2.3.3 0 .2-.2.3-.3.3h-1.2c.1.2.3.5.3.8h.9c.1-.1.2 0 .3 0 .1 0 .1.1.1.3 0 .2-.2.3-.3.3h-.9c-.3.6-.9 1.1-1.6 1.1h-1l2.5 2.2c.1.1.1.2.1.3.1 0 0 .1-.2.2zm-3.6-3.3s-.1.1 0 0l-.1.2.1.1 3.2 2.7c.1.1.1.1.2.1h.2l.1-.1v-.1l-3-2.6h1.6c.6 0 1.2-.4 1.4-1v-.1h1.1s.1 0 .1-.1v-.1h-1.3v-.1c0-.4-.2-.6-.4-.9l-.1-.2h1.6s.1 0 .1-.1 0-.1-.1-.1h-4.6s-.1 0-.1.1 0 .1.1.1h2c.7 0 1.2.5 1.2 1.1v.1h-3.2s-.1 0-.1.1 0 .1.1.1h3.2l-.1.2c-.2.3-.6.7-1.1.7h-2.1z"/><path class="st0" d="M21.1 3.4s0 .1 0 0c-2.3.4-3.9 1.6-5 3H16c-.8-.1-1.9-.3-2.8-.3-2.7 0-5.2.7-7 1.9-1.5 1-2.6 2.4-3 4-.2 0-.5-.1-.6-.3-.3-.3-.4-.8-.4-1.4 0-.3-.2-.6-.6-.6-.3 0-.6.3-.6.6 0 .8.2 1.6.7 2.1.4.4.9.7 1.5.8.1 2.1 1.6 3.9 3.8 5.1V22c0 .3.3.6.6.6H10c.2 0 .4-.1.5-.3l1.6-2.5c.4 0 .8.1 1.2.1s.8 0 1.2-.1l1.6 2.5c.1.2.3.3.5.3H19c.3 0 .6-.3.6-.6v-3.7c1.2-.6 2.2-1.5 2.8-2.4h2c.3 0 .6-.3.6-.6v-4.6c0-.3-.2-.6-.6-.6h-2.1c-.5-.7-1.1-1.4-1.9-2l1.2-4c.1-.3-.1-.6-.4-.7.1.1 0 0-.1 0zm-.8 1.4-1.1 3.4v.2s.1.1.2.1c.9.6 1.6 1.3 2 2.1.1.2.3.3.5.3h1.7v3.5h-1.7c-.2 0-.4.1-.5.3-.6 1-1.6 1.8-2.9 2.5-.2.1-.3.3-.3.5v3.4h-1.6L15 18.6c-.1-.2-.3-.3-.6-.3-.5.1-1 .1-1.5.1s-1 0-1.5-.1c-.2 0-.4.1-.6.3l-1.6 2.5H8.1V18c0-.2-.1-.4-.3-.5-2.2-1.1-3.5-2.7-3.5-4.5 0-1.5.9-2.9 2.5-4s3.9-1.7 6.4-1.7c.7 0 1.5.1 2.1.2-.2.3-.3.6-.5.9-.1.3 0 .6.3.8.3.1.6 0 .8-.3 1-1.8 2.2-3.4 4.4-4.1zM19 10c-.6 0-1.1.5-1.1 1.1s.5 1.1 1.1 1.1 1.1-.5 1.1-1.1S19.6 10 19 10z"/></svg>
