<svg xmlns="http://www.w3.org/2000/svg" width="26" height="26" style="enable-background:new 0 0 26 26" xml:space="preserve"><style>.st0{fill:#fff}</style><g id="Layer_2"><path class="st0" d="M13 14.1c-6 0-11 4-11 9.1 0 .5.4.8.8.8h20.1c.5 0 .8-.4.8-.8 0-.5-.4-.8-.8-.8H3.8c.5-3.6 4.4-6.6 9.2-6.6 5.3 0 9.4 3.4 9.4 7.4 0 .5.4.8.8.8.5 0 .8-.4.8-.8 0-5.2-5-9.1-11-9.1zM13 2.1c-3 0-5.5 2.5-5.5 5.5s2.5 5.5 5.5 5.5 5.5-2.5 5.5-5.5S16 2.1 13 2.1zm0 9.4c-2.2 0-3.9-1.7-3.9-3.9s1.7-3.9 3.9-3.9 3.9 1.7 3.9 3.9-1.7 3.9-3.9 3.9z"/></g></svg>
