<svg version="1.1" id="Layer_1" xmlns="http://www.w3.org/2000/svg" x="0" y="0" width="26" height="26" style="enable-background:new 0 0 26 26" xml:space="preserve"><style>.st0{fill:#fff}</style><path class="st0" d="m1.1 15.5.7.8 6.5-5.1c.1-.2.4-.2.6-.2l6.4-.4c.5-.1.9.3.9.7.1.5-.3.9-.7.9l-2.3.5c-.9.2-1.4 1.1-1.2 2 .2.7.8 1.2 1.6 1.2l3.9-.2c.1 0 .2-.1.3-.1l4.6-3.8c.4-.3.9-.3 1.2.1.3.3.2.8-.1 1.1l-5.8 5c-.2.2-.5.3-.8.3L8 17.7c-.2 0-.3.1-.4.2L3 22.6l.8.7 4.4-4.6 8.6.5c.6 0 1.1-.1 1.6-.5l5.8-4.9c.8-.7.9-1.8.2-2.6s-1.9-.9-2.7-.2l-4.5 3.7-3.8.2c-.2 0-.4-.1-.5-.3-.2-.3-.1-.6.2-.8.1 0 .1-.1.2-.1l2.3-.5a2 2 0 0 0 1.4-2.3c-.2-.8-1-1.4-1.8-1.4l-6.3.4c-.5 0-.9.2-1.3.5l-6.5 5.1z"/><path class="st0" d="m3.9 23.5-1-.9.1-.1 4.6-4.7c.1-.1.3-.2.5-.2l8.9.6c.3 0 .5-.1.7-.2l5.8-5c.3-.2.3-.6.1-.9h-.1c-.3-.3-.7-.3-1-.1L18 15.6c-.1.1-.2.1-.4.2l-3.9.2c-.8 0-1.5-.5-1.7-1.3-.1-.5 0-.9.2-1.3s.6-.7 1.1-.8l2.3-.5c.4 0 .7-.4.6-.8 0-.2-.1-.3-.3-.5-.1-.1-.3-.2-.5-.1l-6.4.4c-.2 0-.4.1-.6.2l-6.6 5.2-.8-1v-.1l6.5-5.1c.4-.3.9-.5 1.4-.5l6.4-.4c.9 0 1.7.6 2 1.5.3 1.1-.4 2.2-1.5 2.4l-2.3.5s-.1 0-.1.1c-.1.1-.2.2-.2.3v.3c.1.1.2.2.4.2l3.7-.2 4.4-3.6c.8-.7 2.1-.6 2.8.2h.1c.7.8.6 2.1-.2 2.8l-5.8 4.9c-.5.4-1.1.6-1.7.6l-8.6-.5-4.4 4.6zm-.6-1 .6.6 4.4-4.5h.1l8.6.5c.6 0 1.1-.1 1.5-.5l5.8-4.9c.7-.6.8-1.7.2-2.4h-.1c-.6-.7-1.8-.8-2.5-.2l-4.5 3.7-3.8.2c-.2 0-.5-.1-.6-.3-.1-.2-.1-.3-.1-.5s.2-.3.3-.4c.1 0 .1-.1.2-.1l2.3-.5c.9-.2 1.5-1.2 1.3-2.1-.2-.8-.9-1.3-1.7-1.3l-6.4.2c-.4 0-.9.2-1.2.4l-6.4 5.1.5.6L8.2 11c.2-.2.5-.3.8-.3l6.4-.4c.2 0 .5 0 .7.2.2.2.3.4.4.6s0 .5-.2.7-.4.3-.6.4l-2.3.5c-.4.1-.7.3-.9.7-.2.3-.3.7-.2 1.1.2.7.8 1.1 1.4 1.1l3.9-.2c.1 0 .2 0 .2-.1l4.6-3.8c.4-.3 1-.3 1.3.1h.1c.3.4.3 1-.1 1.3l-5.8 5c-.3.2-.6.3-.9.3l-8.9-.6c-.1 0-.2 0-.3.1l-4.5 4.8z"/><path class="st0" d="M20.8 4.9c0 .2-.1.3-.3.3h-1.4c-.2.8-1 1.5-2 1.5h-1.6l3.6 3.1c.2.1.1.4-.1.5-.1 0-.2.1-.3.1-.2 0-.3 0-.4-.1l-4.1-3.4c-.1-.1-.1-.2-.1-.2v-.1c0-.2.1-.3.3-.3h2.7c.6 0 1-.3 1.3-.8h-3.9c-.2 0-.3-.1-.3-.3s.1-.3.3-.3h4c0-.7-.6-1.3-1.4-1.3h-2.7c-.2 0-.3-.1-.3-.3s.1-.3.3-.3h6c.2 0 .3.1.3.3s-.1.3-.3.3h-1.8c.3.4.5.8.5 1.3h1.3c.2-.3.4-.1.4 0z"/><path class="st0" d="M18.8 10.4c-.2 0-.4-.1-.5-.2l-4.1-3.4c-.1-.1-.2-.2-.1-.4v-.1c0-.2.2-.4.4-.4h2.7c.4 0 .8-.2 1-.6h-3.7c-.2 0-.4-.2-.4-.4s.2-.4.4-.4h3.9c-.1-.6-.6-1.1-1.3-1.1h-2.7c-.2 0-.4-.2-.4-.4s.2-.4.4-.4h6c.2 0 .4.2.4.4s-.2.4-.4.4h-1.6c.2.3.4.7.4 1.1h1.2c.2 0 .4.2.4.4s-.2.4-.4.4h-1.3c-.3.9-1.1 1.5-2 1.5h-1.2l3.4 2.8c.1.1.2.2.1.3 0 .1-.1.3-.3.3 0 .2-.2.2-.3.2zm-4.3-4.2c-.1 0-.2.1-.2.2v.1l4.1 3.4c.1.1.4.1.6.1.1 0 .1-.1.1-.1s0-.1-.1-.1l-3.9-3.3H17c1 .1 1.8-.5 2-1.3v-.1h1.5c.1 0 .2-.1.2-.2s-.1-.2-.2-.2h-1.4v-.1c0-.5-.2-.9-.5-1.2l-.2-.2h2.1c.1 0 .2-.1.2-.2s-.1-.2-.2-.2h-6c-.1 0-.2.1-.2.2s.1.2.2.2h2.7c.8 0 1.5.6 1.5 1.4v.1h-4.2c-.1 0-.2.1-.2.2s.1.2.2.2h4.1l-.1.2c-.3.5-.8.9-1.4.9h-2.6z"/></svg>
