<svg version="1.1" id="Layer_1" xmlns="http://www.w3.org/2000/svg" x="0" y="0" width="84" height="84" style="enable-background:new 0 0 84 84" xml:space="preserve"><style>.st0{fill:#fff}.st1{fill:#1f1d18}</style><g id="XMLID_1_"><path class="st0" d="M57.4 26.9a2.732 2.732 0 0 0-2.7 2.7c0 1.5 1.2 2.7 2.7 2.7 1.4 0 2.7-1.2 2.7-2.6 0-.7-.3-1.4-.8-1.9-.5-.6-1.2-.9-1.9-.9zM56 53.3v1.2c0 .2-.1.2-.2.2h-7V52h-7.5v2.4c0 .2-.1.3-.1.3h-7.1s0-.1-.1-.3c-.1-2.8-1-5.1-2.8-7-2.1-2.3-3.6-5-4.4-7.9-.8-2.9-.7-5.9.4-8.7 1.2.8 2.4 1.4 3.6 1.8 4.4 1.5 9.4 1.2 13.5-1.1 4.2-2.2 7.2-6.2 8.4-10.8.3-1.1.9-1.9 1.8-2.6 1.1-.8 2.3-1.2 3.8-1.4.4-.1.4 0 .5.1.1.1.1.2-.1.5-1.2 1.9-1.5 3.8-.9 5.7.1.4.3.7.6 1 2.4 2 4 4.3 5 7 .1.4.5.9 1.4.9h.3c.4 0 .8 0 1.1.1.5.1.8.5.8 1v5.2c0 .5-.4 1-.9 1h-1.2c-.9 0-1.3.6-1.5 1-.8 2.5-2.2 4.6-4.4 6.7-.7.6-1.3 1.2-1.8 1.9-.8 1.4-1.3 2.9-1.2 4.5z"/><path class="st0" d="M57.4 28.9c.2 0 .4.1.5.2.1.1.2.2.2.5 0 .4-.3.7-.7.7-.4 0-.7-.3-.7-.7 0-.4.3-.7.7-.7z"/><path class="st1" d="M55.5 27.7c.5-.5 1.1-.8 1.9-.8a2.732 2.732 0 0 1 2.7 2.7c0 1.4-1.3 2.6-2.7 2.6-1.5 0-2.7-1.2-2.7-2.7 0-.7.3-1.4.8-1.8zm1.2 1.9c0 .4.3.7.7.7.4 0 .7-.3.7-.7 0-.2-.1-.4-.2-.5-.1-.1-.3-.2-.5-.2-.4 0-.7.3-.7.7z"/><path class="st0" d="m56.3 67.2 11.2-4.8s3.3-1.7 5 .3l.2.2c.1.1 1 .7.8 1.8-.2.8-3.3 3.1-6.8 5l-12.4 7.8c-2.1 1.4-8.2 5-11.6 4.4h-.2c-1.8 0-6.9-.3-8.8-1.7l-10.6-5v-15h9.1c1.6.4 5.9 1.7 7.4 3.8l.1.1.1.1c.3.2 2.9 2 5 1.7 1.3-.2 6.2 0 8 0 0 0 1 .1 1.4.9.1.2.1.5.1.8 0 .2-.1 1.4-1.4 2H35.8v2h17.5l.2-.1c2.7-1 2.8-3.7 2.8-3.8v-.6.1z"/><path class="st1" d="M56 66c.1.3.2.6.3 1l-.7-1.7c.2.2.3.5.4.7z"/><path class="st1" d="M33.8 80.1c1.9 1.4 7 1.7 8.8 1.7h.2c3.4.6 9.5-3 11.6-4.4l12.4-7.8c3.4-1.9 6.6-4.2 6.8-5 .2-1.2-.7-1.8-.8-1.8l-.2-.2c-1.7-2-5-.3-5-.3l-11.2 4.8-.1-.1c0-.4-.1-.7-.3-1-.1-.3-.3-.5-.4-.7l11-4.7c.1-.1 4.5-2.4 7.3.7.8.6 1.9 1.9 1.5 3.8-.4 2.1-5.5 5.2-7.7 6.4l-12.3 7.7c-.3.2-7.1 4.8-11.9 4.8-.4 0-.7 0-1-.1-1 0-7.1-.1-9.8-2.1l-9.5-4.4v-2.2l10.6 4.9zM35 16.2s.2.3.5.7l3.5 4.8v.2h-1.5c-2.8-3.7-4.2-5.5-4.2-5.5v-1.2c.2 0 .5.1.9.1 1.5 0 2.5-.6 2.9-1.7 0-.2.1-.3.1-.5H33c.5-.8.7-1.2.7-1.2H37c-.2-.4-.6-.8-1.1-1-.4-.2-.8-.2-1.1-.2h-1.9c.5-.8.7-1.2.7-1.2h7.1c-.4.7-.7 1.1-.7 1.2h-1.9c.3.3.4.8.5 1.3h2c-.4.8-.7 1.2-.7 1.2h-1.3c0 .4-.2.9-.5 1.4-.4.6-.8.9-1.2 1.1-.6.3-1.2.5-1.9.5z"/><path class="st0" d="M32.9 13.1h4.2c0 .2 0 .3-.1.5-.4 1.1-1.4 1.7-2.9 1.7-.3 0-.6 0-.9-.1v1.2s1.4 1.9 4.2 5.5H39v-.2l-3.5-4.8c-.3-.4-.5-.6-.5-.7.6 0 1.3-.2 2-.6.4-.2.8-.5 1.2-1.1.3-.6.5-1 .5-1.4H40s.2-.4.7-1.2h-2c-.1-.5-.3-.9-.5-1.3H40c.1-.1.3-.4.7-1.2h-7.1s-.2.4-.7 1.2h1.9c.3 0 .7.1 1.1.2.5.2.9.6 1.1 1h-3.4c0 .1-.3.5-.7 1.3zm15.8 1.1c0 3.3-1.3 6.3-3.6 8.6s-5.3 3.6-8.6 3.6c-6.7 0-12.1-5.5-12.1-12.2 0-3.2 1.3-6.3 3.6-8.6S33.4 2 36.6 2c6.6.1 12.1 5.5 12.1 12.2z"/><path class="st1" d="M32.3 60.2h-9.1v-2h9.4c.3 0 6.2 1.4 8.6 4.5.9.6 2.5 1.4 3.4 1.2 1.7-.3 7.7 0 8.4 0 .7 0 1.9.4 2.7 1.4l.7 1.7v.6c0 .2-.2 2.8-2.8 3.8l-.2.1H35.8v-2H53c1.3-.6 1.4-1.8 1.4-2 0-.3 0-.5-.1-.8-.4-.8-1.4-.9-1.4-.9-1.8-.1-6.7-.2-8 0-2 .3-4.7-1.5-5-1.7l-.1-.1h-.1c-1.5-2.1-5.8-3.4-7.4-3.8zm12.2-28.7c-4.1 2.2-9.1 2.6-13.5 1.1-1.3-.4-2.5-1-3.6-1.8-1 2.9-1.2 5.8-.4 8.7.8 2.9 2.3 5.6 4.4 7.9 1.7 1.9 2.7 4.3 2.8 7 0 .2 0 .3.1.3h7.1s.1-.1.1-.3V52H49v2.7h7c.1 0 .2 0 .2-.2v-1.2c-.1-1.6.4-3.1 1.4-4.5.5-.7 1.1-1.3 1.8-1.9 2.1-2 3.6-4.2 4.4-6.7.1-.4.5-1 1.5-1h1.2c.6-.1.9-.5.9-1V33c0-.5-.3-.9-.8-1-.3-.1-.7-.1-1.1-.1h-.3c-.9 0-1.2-.6-1.4-.9-1-2.7-2.6-5-5-7-.3-.2-.5-.6-.6-1-.5-1.9-.2-3.8.9-5.7.2-.3.1-.4.1-.5 0-.1-.1-.1-.5-.1-1.5.2-2.7.7-3.8 1.4-1 .7-1.5 1.5-1.8 2.6-1.4 4.6-4.5 8.5-8.6 10.8zm-12.9-.8c4 1.4 8.2 1 11.9-1 3.7-2 6.3-5.4 7.4-9.5.4-1.6 1.2-2.8 2.6-3.8 1.3-.9 2.8-1.5 4.6-1.8 1.4-.2 2.1.4 2.4 1 .3.6.6 1.4-.1 2.6-.9 1.4-1.1 2.8-.7 4.1 2.5 2.1 4.3 4.6 5.4 7.5.5 0 .9 0 1.4.1 1.5.2 2.5 1.5 2.5 3v5.2c0 1.6-1.1 2.8-2.7 3h-1.1c-.9 2.6-2.5 5-4.8 7.2-.4.7-1 1.2-1.4 1.8-.7 1-1.1 2.1-1 3.2v1.3c-.1 1.3-.9 2.2-2.2 2.2h-6.9c-1.2 0-2.1-.9-2.1-2.2V54h-3.5v.4c0 1.4-.9 2.3-2.3 2.3h-6.6c-1.4 0-2.3-.9-2.3-2.3-.1-2.3-.8-4.2-2.2-5.7-2.3-2.6-4-5.5-4.8-8.7-1-3.7-.7-7.3.8-10.9 0-.1.1-.1.1-.2l.6-1.2 1 .7c1.2 1 2.6 1.8 4 2.3z"/><path class="st1" d="M24.4 14.2c0 6.7 5.4 12.2 12.1 12.2 3.2 0 6.3-1.3 8.6-3.6s3.6-5.4 3.6-8.6C48.7 7.5 43.2 2 36.5 2c-3.2 0-6.3 1.3-8.6 3.6s-3.5 5.4-3.5 8.6zm12.1 14.2c-7.8 0-14.1-6.4-14.1-14.2 0-3.8 1.5-7.3 4.2-10S32.8 0 36.6 0c7.8 0 14.2 6.4 14.2 14.2 0 3.8-1.5 7.4-4.2 10.1s-6.3 4.1-10.1 4.1zM23.2 75.1v2.2l-1.9-.8.9-1.8zm0-16.5v1.6h-1.4v-2h1.4v.4z"/><path class="st1" d="M21.2 76.5V60.2h2v14.9l-1-.4-.9 1.8z"/><path class="st0" d="M21.2 76.5v.9c0 .4-.3.8-.8.8h-9.2c-.4 0-.8-.3-.8-.8V58.6c0-.4.3-.8.8-.8h9.2c.4 0 .8.3.8.8v17.9z"/><path class="st1" d="M20.4 78.2c.4 0 .8-.3.8-.8v-.9h.1l1.9.9v.1c0 1.5-1.2 2.8-2.8 2.8h-9.2c-1.5 0-2.8-1.2-2.8-2.8V58.6c0-1.5 1.2-2.8 2.8-2.8h9.2c1.4 0 2.5 1 2.7 2.4h-1.4v2h-.6v-1.6c0-.4-.3-.8-.8-.8h-9.2c-.4 0-.8.3-.8.8v18.8c0 .4.3.8.8.8h9.3z"/></g></svg>
