<svg version="1.1" id="Layer_1" xmlns="http://www.w3.org/2000/svg" x="0" y="0" width="84" height="84" style="enable-background:new 0 0 84 84" xml:space="preserve"><style>.st0{fill:#fff}.st1{fill:#1f1d18}</style><g id="XMLID_1_"><path class="st0" d="M74.8 14.9v63.6c0 1.9-1.6 3.5-3.5 3.5H41c11.3-2.3 17.8-6 20.5-7.9.5-.3 1-.7 1.5-1.1l.1-.1c.9-1 1.4-2.3 1.4-3.7V11.4h6.8c1.9 0 3.5 1.6 3.5 3.5z"/><path class="st1" d="M63.4 9.4h1v2h-1zm1 59.7c0 1.4-.5 2.7-1.4 3.7l-1.3-1.5c.5-.6.8-1.4.8-2.2V11.4h2v57.7zm-1.5 3.8c-.4.4-.9.8-1.5 1.1.9-.6 1.4-1 1.5-1.1z"/><path class="st1" d="m61.7 71.3 1.3 1.5-.1.1c-.2.2-.7.6-1.5 1.1-.8.4-1.6.6-2.5.6h-2.5c1.7-.9 3-1.7 3.9-2.3.6-.2 1-.5 1.4-1-.1 0 0 0 0 0z"/><path class="st1" d="M61.6 71.3c-.3.4-.8.7-1.2.9.7-.4 1.1-.8 1.2-.9zM59 72.6c.5 0 .9-.1 1.4-.3-.9.6-2.1 1.4-3.9 2.3H21.6v-2H59z"/><path class="st1" d="M59 74.6c.9 0 1.8-.2 2.5-.6-2.7 1.9-9.2 5.7-20.5 7.9H25c-.3 0-.7 0-1-.1 16.4-.5 26.8-4.3 32.4-7.2H59z"/><path class="st0" d="M21.6 74.6h34.9c-5.6 2.9-16 6.7-32.4 7.2-1.4-.4-2.5-1.8-2.5-3.3v-3.9z"/><path class="st1" d="M52.6 61.1v2l-1 .1H21.2v-2l1-.1zm0-9.3v2l-1 .1H21.2v-2l1-.1zm0-9.3v2l-1 .1H21.2v-2l1-.1zm0-9.8v2H21.2v-2h1zm-6.1-14.9 3.3 5.5h-2.4c-.2 0-.3 0-.4-.1-.1-.1-.2-.2-.2-.3l-2.1-3.7c0 .1-.1.2-.1.3l-1.9 3.4c-.1.1-.1.2-.2.3-.1.1-.2.1-.4.1h-2.3l3.3-5.4-3.2-5.1h2.4c.2 0 .3 0 .4.1.1 0 .1.1.2.2l2.1 3.5c0-.1 0-.1.1-.2 0-.1.1-.1.1-.2l1.8-3.1c.1-.2.3-.3.5-.3h2.3l-3.3 5z"/><path class="st0" d="m34.9 16.4 1 2.9h-2.8l.9-2.8c.1-.2.2-.4.2-.6.1-.2.2-.5.2-.8.1.3.2.6.2.8.2.1.3.3.3.5z"/><path class="st1" d="M33.2 12.8h2.5l4 10.4h-1.9c-.2 0-.4 0-.5-.1-.1-.1-.2-.2-.3-.4l-.6-1.8h-4l-.6 1.8c0 .1-.1.3-.3.4-.1.1-.3.2-.5.2h-1.9l4.1-10.5zm1.3 2.2c-.1.3-.1.6-.2.8-.1.3-.2.5-.2.6l-.9 2.8H36l-1-2.9c-.1-.2-.1-.4-.2-.6-.2-.2-.2-.4-.3-.7z"/><path class="st0" d="m46.5 17.8 3.3-5h-2.3c-.2 0-.4.1-.5.3l-1.8 3.1c0 .1-.1.1-.1.2s-.1.1-.1.2l-2.1-3.5c-.1-.1-.1-.2-.2-.2s-.2-.1-.4-.1h-2.4l3.2 5.1-3.3 5.4h2.3c.1 0 .3 0 .4-.1.1-.1.2-.2.2-.3l1.9-3.4c.1-.1.1-.2.1-.3l2.1 3.7c0 .1.1.2.2.3.1.1.2.1.4.1h2.4l-3.3-5.5zm-16.3-3v-1.9h-8.3v1.9h2.9v8.5h2.4v-8.5h3zm3-2-4 10.4h1.9c.2 0 .4 0 .5-.2.1-.1.2-.2.3-.4l.6-1.8h4l.6 1.8c.1.2.2.3.3.4.1.1.3.1.5.1h1.9l-4-10.4h-2.6zm29.2-1.4v57.7c0 .8-.3 1.6-.8 2.2-.1.1-.5.4-1.2.9-.4.2-.9.3-1.4.3H12.8c-1.9 0-3.4-1.6-3.4-3.5V5.5C9.4 3.6 11 2 12.8 2H59c1.9 0 3.5 1.6 3.5 3.5v5.9zm-9.8 51.7v-2H22.2l-1 .1v2h30.4l1-.1zm0-9.3v-2H22.2l-1 .1v2h30.4l1-.1zm0-9.3v-2H22.2l-1 .1v2h30.4l1-.1zm0-9.8v-2H21.2v2h31.4z"/><path class="st1" d="M21.9 12.8h8.3v2h-2.9v8.4h-2.4v-8.4h-3zm2.1 71c6.6-.2 12.2-.9 17-1.9h30.3c1.9 0 3.5-1.5 3.5-3.5V14.9c0-1.9-1.6-3.5-3.5-3.5h-6.8v-2h6.8c3 0 5.5 2.4 5.5 5.5v63.6c0 3-2.4 5.5-5.5 5.5H25c-.3-.1-.7-.1-1-.2z"/><path class="st1" d="M24 81.8c.3.1.6.1 1 .1h16c-4.8 1-10.4 1.7-17 1.9l-.1-2h.1z"/><path class="st1" d="m23.9 81.8.1 2c-2.5-.5-4.4-2.7-4.4-5.3v-3.9h2v3.9c0 1.6 1.1 2.9 2.5 3.3h-.2zm-4.3-8.2h2v1h-2z"/><path class="st1" d="M12.7 2.1c-1.9 0-3.4 1.6-3.4 3.5v63.6c0 1.9 1.6 3.5 3.4 3.5h8.8v1h-2v1h-6.8c-3 0-5.4-2.5-5.4-5.5V5.5c0-3 2.4-5.5 5.4-5.5H59c3 0 5.5 2.5 5.5 5.5v3.9h-1v2h-1V5.5C62.5 3.6 61 2 59 2H12.7z"/></g></svg>
