<svg xmlns="http://www.w3.org/2000/svg" width="84" height="84" style="enable-background:new 0 0 84 84" xml:space="preserve"><path d="M31.5 26.1c.1 0 8.4 3.2 9.9 7.5 2.4 6.9-2.5 10-2.4 10 .3-.1-6.4.7-8.9-5.2-1.8-4.3 1.1-12.2 1.4-12.3zm27.2-1c.1.1.4 8.5-2.7 11.7-3.8 4-9.8 2-9.8 2 .2.2-3.3-6.6 1.6-11 3.3-2.8 10.7-2.8 10.9-2.7z" style="fill:#fff;stroke:#1f1d18;stroke-width:2;stroke-miterlimit:10;stroke-linejoin:round"/><path d="M42.1 1c.2 0 8.2 8.9 8.2 14.9 0 9-8.2 11.1-8.2 11.1s-8.4-2.1-8.4-11.1c0-6 8-14.9 8.4-14.9h0z" style="fill:#fff;stroke:#1f1d18;stroke-width:2;stroke-linecap:round;stroke-linejoin:round;stroke-miterlimit:10"/><path d="M62.8 48.1H21.2c-1.6 0-2.8 1.3-2.8 2.8v.8c0 1.6 1.3 2.8 2.8 2.8h1.5l5.6 25.6c0 1.5 1.2 2.8 2.8 2.8h20.8c1.5 0 2.8-1.2 2.8-2.8l6.2-25.6H63c1.6 0 2.8-1.3 2.8-2.8V51c-.2-1.6-1.4-2.9-3-2.9zm-2.1 6.5H21.2" style="fill:#fff;stroke:#1f1d18;stroke-width:2;stroke-miterlimit:10"/></svg>
