<?xml version="1.0" encoding="UTF-8"?>
<svg width="22px" height="22px" viewBox="0 0 22 22" version="1.1" xmlns="http://www.w3.org/2000/svg" xmlns:xlink="http://www.w3.org/1999/xlink">
    <title>Icon/32px/Facebook</title>
    <defs>
        <filter id="filter-1">
            <feColorMatrix in="SourceGraphic" type="matrix" values="0 0 0 0 1.000000 0 0 0 0 1.000000 0 0 0 0 1.000000 0 0 0 1.000000 0"></feColorMatrix>
        </filter>
    </defs>
    <g id="Page-1" stroke="none" stroke-width="1" fill="none" fill-rule="evenodd">
        <g id="Footer_XL" transform="translate(-1226.000000, -209.000000)">
            <g id="Copyright/Social" transform="translate(69.000000, 204.000000)">
                <g id="Social" transform="translate(1112.000000, 0.000000)">
                    <g id="Icon/32px/Facebook" transform="translate(40.000000, 0.000000)" filter="url(#filter-1)">
                        <g>
                            <rect id="Icon-BG" x="0" y="0" width="32" height="32"></rect>
                            <g id="001-instagram" transform="translate(5.000000, 5.000000)" fill="#000000" fill-rule="nonzero">
                                <path d="M21.9042713,6.45189914 C21.852861,5.2858751 21.664301,4.48424404 21.3941881,3.78961997 C21.1155346,3.05229355 20.686837,2.39216619 20.1251762,1.84339975 C19.5764097,1.28609285 18.9119284,0.853041296 18.1831425,0.578741783 C17.4844993,0.308628803 16.6870547,0.120068814 15.5210307,0.0686585813 C14.3462988,0.0128944098 13.9733654,0 10.9939169,0 C8.01446847,0 7.64153503,0.0128944098 6.47115705,0.0643046426 C5.30513301,0.115714875 4.50350195,0.304442271 3.80904529,0.574387844 C3.07155146,0.853041296 2.4114241,1.28173891 1.86265767,1.84339975 C1.30535076,2.39216619 0.872466614,3.05664749 0.597999695,3.78543344 C0.327886715,4.48424404 0.139326726,5.28152116 0.0879164928,6.4475452 C0.0321523213,7.62227711 0.0192579115,7.99521056 0.0192579115,10.974659 C0.0192579115,13.9541074 0.0321523213,14.3270409 0.0835625541,15.4974189 C0.134972787,16.6634429 0.323700182,17.465074 0.593813162,18.159698 C0.872466614,18.8970244 1.30535076,19.5571518 1.86265767,20.1059182 C2.4114241,20.6632251 3.0759054,21.0962767 3.80469135,21.3705762 C4.50350195,21.6406892 5.30077907,21.8292492 6.46697052,21.8806594 C7.63718109,21.9322371 8.01028194,21.9449641 10.9897304,21.9449641 C13.9691788,21.9449641 14.3421123,21.9322371 15.5124902,21.8806594 C16.6785143,21.8292492 17.4801453,21.6406892 18.174602,21.3705762 C19.6494222,20.8003749 20.8154463,19.6343509 21.3856476,18.159698 C21.6555932,17.4608874 21.8443206,16.6634429 21.8957308,15.4974189 C21.947141,14.3270409 21.9600354,13.9541074 21.9600354,10.974659 C21.9600354,7.99521056 21.9556815,7.62227711 21.9042713,6.45189914 Z M19.9280757,15.4116793 C19.880852,16.4834234 19.7008325,17.0621652 19.5507883,17.447993 C19.1820414,18.4040222 18.4232801,19.1627835 17.4672509,19.5315304 C17.0814231,19.6815746 16.4984948,19.8615941 15.4309372,19.9086504 C14.2734537,19.960228 13.9263091,19.972955 10.9982709,19.972955 C8.07023264,19.972955 7.71873408,19.960228 6.56543704,19.9086504 C5.493693,19.8615941 4.91495122,19.6815746 4.52912336,19.5315304 C4.05336945,19.3556974 3.6203179,19.077044 3.26881933,18.712651 C2.90442636,18.3567985 2.62577291,17.9281009 2.44993992,17.452347 C2.29989575,17.0665191 2.11987624,16.4834234 2.07281994,15.4160333 C2.0212423,14.2585497 2.0085153,13.9112377 2.0085153,10.9831995 C2.0085153,8.05516126 2.0212423,7.7036627 2.07281994,6.55053307 C2.11987624,5.47878903 2.29989575,4.90004725 2.44993992,4.51421939 C2.62577291,4.03829807 2.90442636,3.60541392 3.27317327,3.25374795 C3.62885837,2.88935498 4.05755598,2.61070153 4.5334773,2.43503595 C4.91930516,2.28499178 5.50240088,2.10497226 6.56979098,2.05774856 C7.72727455,2.00633833 8.07458658,1.99344392 11.0024574,1.99344392 C13.9348495,1.99344392 14.2819942,2.00633833 15.4352912,2.05774856 C16.5070352,2.10497226 17.085777,2.28499178 17.4716049,2.43503595 C17.9473588,2.61070153 18.3804103,2.88935498 18.7319089,3.25374795 C19.0963019,3.60960046 19.3749553,4.03829807 19.5507883,4.51421939 C19.7008325,4.90004725 19.880852,5.48297556 19.9280757,6.55053307 C19.9794859,7.70801664 19.9923803,8.05516126 19.9923803,10.9831995 C19.9923803,13.9112377 19.9794859,14.2541958 19.9280757,15.4116793 Z" id="Shape"></path>
                                <path d="M10.9939169,5.33728533 C7.88167265,5.33728533 5.35654325,7.86224734 5.35654325,10.974659 C5.35654325,14.0870707 7.88167265,16.6120327 10.9939169,16.6120327 C14.1063286,16.6120327 16.6312906,14.0870707 16.6312906,10.974659 C16.6312906,7.86224734 14.1063286,5.33728533 10.9939169,5.33728533 Z M10.9939169,14.6314832 C8.97485158,14.6314832 7.33709276,12.9938917 7.33709276,10.974659 C7.33709276,8.95542626 8.97485158,7.31783484 10.9939169,7.31783484 C13.0131497,7.31783484 14.6507411,8.95542626 14.6507411,10.974659 C14.6507411,12.9938917 13.0131497,14.6314832 10.9939169,14.6314832 L10.9939169,14.6314832 Z" id="Shape"></path>
                                <path d="M18.1704155,5.11439605 C18.1704155,5.84117248 17.5811237,6.43046426 16.8541799,6.43046426 C16.1274034,6.43046426 15.5381117,5.84117248 15.5381117,5.11439605 C15.5381117,4.38745218 16.1274034,3.79832785 16.8541799,3.79832785 C17.5811237,3.79832785 18.1704155,4.38745218 18.1704155,5.11439605 L18.1704155,5.11439605 Z" id="Path"></path>
                            </g>
                        </g>
                    </g>
                </g>
            </g>
        </g>
    </g>
</svg>