<svg version="1.1" id="Layer_1" xmlns="http://www.w3.org/2000/svg" x="0" y="0" width="51" height="51" style="enable-background:new 0 0 51 51" xml:space="preserve"><style>.st0{fill:#fff}</style><path class="st0" d="M43.2 23.9C43.2 15 36 7.8 27.1 7.8c-.4 0-.9.4-.9.9v15.2c0 .4.4.9.9.9h15.2c.6-.2.9-.5.9-.9zM28 23V9.4c7.3.4 13.1 6.2 13.5 13.5L28 23z"/><path class="st0" d="M39.1 26.4H24.6V11.9c0-.4-.4-.9-.9-.9-8.8.1-16 7.3-16 16.1s7.2 16.1 16.1 16.1S40 36.1 40 27.1c-.1-.4-.5-.7-.9-.7zM23.9 41.6c-8 0-14.4-6.5-14.4-14.4 0-7.6 6-13.9 13.6-14.4v14.4c0 .4.4.9.9.9h14.4c-.7 7.5-6.9 13.5-14.5 13.5z"/><path class="st0" d="M20.7 23.8h-2.5c.4.3.7.9.9 1.6h1.6v.6H19c-.1 1.6-1.4 2.5-3.4 2.6 1.1 1.2 2.5 2.9 3.7 4.4h-1.5c-1.1-1.5-2.3-2.7-3.7-4.2v-1h.9c1.6 0 2.5-.7 2.6-1.8h-3.5v-.7h3.5c-.2-1-1-1.4-2.4-1.4h-1v-1h6.6v.9z"/></svg>
